<svg id="visual" viewBox="0 0 900 600" width="900" height="600" xmlns="http://www.w3.org/2000/svg" xmlns:xlink="http://www.w3.org/1999/xlink" version="1.1"><g transform="translate(425.2814748920265 307.0150785868194)"><path d="M149.6 -238.5C179.9 -213.3 180.9 -148.2 213 -92.9C245 -37.6 308.1 7.9 309.5 49.2C310.9 90.6 250.7 127.8 202.1 164C153.4 200.2 116.4 235.4 75.9 237.9C35.4 240.4 -8.7 210.1 -55.7 194.3C-102.7 178.4 -152.6 177 -184.4 152.8C-216.2 128.7 -229.8 81.8 -243.2 31.1C-256.6 -19.7 -269.8 -74.5 -250 -112.7C-230.2 -150.9 -177.6 -172.6 -130.4 -190.1C-83.3 -207.6 -41.6 -220.8 9 -234.8C59.7 -248.8 119.3 -263.6 149.6 -238.5" fill="#f08475"></path></g></svg>