<svg id="visual" viewBox="0 0 900 450" width="900" height="450" xmlns="http://www.w3.org/2000/svg" xmlns:xlink="http://www.w3.org/1999/xlink" version="1.1"><rect x="0" y="0" width="900" height="450" fill="#c5c7bf"></rect><path d="M625 450L632.3 440.7C639.7 431.3 654.3 412.7 635.8 394C617.3 375.3 565.7 356.7 567.8 337.8C570 319 626 300 606 281.2C586 262.3 490 243.7 473.8 225C457.7 206.3 521.3 187.7 507.7 169C494 150.3 403 131.7 374.3 112.8C345.7 94 379.3 75 399.8 56.2C420.3 37.3 427.7 18.7 431.3 9.3L435 0L900 0L900 9.3C900 18.7 900 37.3 900 56.2C900 75 900 94 900 112.8C900 131.7 900 150.3 900 169C900 187.7 900 206.3 900 225C900 243.7 900 262.3 900 281.2C900 300 900 319 900 337.8C900 356.7 900 375.3 900 394C900 412.7 900 431.3 900 440.7L900 450Z" fill="#F08475" stroke-linecap="round" stroke-linejoin="miter"></path></svg>